nColumns=19
nRows=74
DataType=double
version=3
OpenSimVersion=4.1
endheader
time	ground_force_calcn_r_vx	ground_force_calcn_r_vy	ground_force_calcn_r_vz	ground_force_calcn_r_px	ground_force_calcn_r_py	ground_force_calcn_r_pz	ground_force_calcn_r_mx	ground_force_calcn_r_my	ground_force_calcn_r_mz	ground_force_calcn_l_vx	ground_force_calcn_l_vy	ground_force_calcn_l_vz	ground_force_calcn_l_px	ground_force_calcn_l_py	ground_force_calcn_l_pz	ground_force_calcn_l_mx	ground_force_calcn_l_my	ground_force_calcn_l_mz
1.39167	0	0	0	0	0	0	0	0	0	7.28687	16.1671	-3.23379	0.790921	0	-0.247465	-0.946036	-2.09893	0.419835
1.4	0	0	0	0	0	0	0	0	0	0	0	0	0	0	0	0	0	0
1.40833	0	0	0	0	0	0	0	0	0	0	0	0	0	0	0	0	0	0
1.41667	0	0	0	0	0	0	0	0	0	0	0	0	0	0	0	0	0	0
1.425	0	0	0	0	0	0	0	0	0	0	0	0	0	0	0	0	0	0
1.43333	0	0	0	0	0	0	0	0	0	0	0	0	0	0	0	0	0	0
1.44167	0	0	0	0	0	0	0	0	0	0	0	0	0	0	0	0	0	0
1.45	0	0	0	0	0	0	0	0	0	0	0	0	0	0	0	0	0	0
1.45833	0	0	0	0	0	0	0	0	0	0	0	0	0	0	0	0	0	0
1.46667	0	0	0	0	0	0	0	0	0	0	0	0	0	0	0	0	0	0
1.475	0	0	0	0	0	0	0	0	0	0	0	0	0	0	0	0	0	0
1.48333	0	0	0	0	0	0	0	0	0	0	0	0	0	0	0	0	0	0
1.49167	-5.52268	25.7255	-11.3795	1.27378	0	-0.220766	0.267319	-1.24521	0.550812	0	0	0	0	0	0	0	0	0
1.5	-29.6644	74.4401	-22.7749	1.35901	0	-0.281005	-0.584743	1.46736	-0.448937	0	0	0	0	0	0	0	0	0
1.50833	-81.0493	187.637	-38.0708	1.3846	0	-0.300227	-1.98674	4.5995	-0.933218	0	0	0	0	0	0	0	0	0
1.51667	-148.909	374.126	-52.7282	1.39238	0	-0.305584	-3.03223	7.61832	-1.0737	0	0	0	0	0	0	0	0	0
1.525	-188.148	598.232	-59.7247	1.38217	0	-0.308361	-3.09174	9.8304	-0.981422	0	0	0	0	0	0	0	0	0
1.53333	-178.376	834.696	-53.333	1.34816	0	-0.311833	-2.19447	10.2688	-0.656127	0	0	0	0	0	0	0	0	0
1.54167	-167.058	1083.05	-31.3209	1.30406	0	-0.316615	-1.27982	8.29721	-0.239948	0	0	0	0	0	0	0	0	0
1.55	-185.643	1320.02	4.32263	1.26693	0	-0.321176	-0.628477	4.4688	0.0146338	0	0	0	0	0	0	0	0	0
1.55833	-206.19	1519.71	45.5193	1.23623	0	-0.324714	0.0132105	-0.0973673	-0.00291641	0	0	0	0	0	0	0	0	0
1.56667	-194.566	1679.48	79.799	1.2048	0	-0.327661	0.498202	-4.30045	-0.204332	0	0	0	0	0	0	0	0	0
1.575	-145.032	1804.87	98.2653	1.17045	0	-0.330089	0.586953	-7.30441	-0.397686	0	0	0	0	0	0	0	0	0
1.58333	-77.8319	1892.4	101.683	1.13643	0	-0.331739	0.357169	-8.68416	-0.46662	0	0	0	0	0	0	0	0	0
1.59167	-12.2063	1938.2	97.4143	1.10466	0	-0.332201	0.0537342	-8.53228	-0.428833	0	0	0	0	0	0	0	0	0
1.6	48.8538	1942.16	91.6065	1.07387	0	-0.331659	-0.184736	-7.34409	-0.346401	0	0	0	0	0	0	0	0	0
1.60833	104.966	1901.61	85.8668	1.04331	0	-0.330916	-0.317215	-5.74682	-0.259497	0	0	0	0	0	0	0	0	0
1.61667	153.867	1813.01	80.0557	1.01344	0	-0.330484	-0.361855	-4.26373	-0.18827	0	0	0	0	0	0	0	0	0
1.625	191.358	1675.83	74.9404	0.984788	0	-0.33041	-0.36299	-3.1789	-0.142155	0	0	0	0	0	0	0	0	0
1.63333	217.337	1491.65	71.0092	0.956612	0	-0.330421	-0.366243	-2.51364	-0.11966	0	0	0	0	0	0	0	0	0
1.64167	236.258	1263.06	66.3746	0.9266	0	-0.330207	-0.393155	-2.10185	-0.110453	0	0	0	0	0	0	0	0	0
1.65	246.43	1000.08	57.7648	0.89214	0	-0.329996	-0.425539	-1.72696	-0.0997492	0	0	0	0	0	0	0	0	0
1.65833	239.256	731.334	44.0713	0.853445	0	-0.329768	-0.41168	-1.25838	-0.0758318	0	0	0	0	0	0	0	0	0
1.66667	206.61	492.295	28.1899	0.817413	0	-0.328574	-0.302306	-0.720314	-0.0412467	0	0	0	0	0	0	0	0	0
1.675	155.311	304.209	14.7016	0.793039	0	-0.324848	-0.118018	-0.231163	-0.0111715	0	0	0	0	0	0	0	0	0
1.68333	101.07	170.992	6.06447	0.78449	0	-0.316296	0.0615562	0.104143	0.00369356	0	0	0	0	0	0	0	0	0
1.69167	56.4706	85.1844	1.66417	0.785044	0	-0.301092	0.161094	0.243006	0.00474739	0	0	0	0	0	0	0	0	0
1.7	27.6443	36.6308	-0.227866	0.779497	0	-0.271641	0.14769	0.1957	-0.00121738	0	0	0	0	0	0	0	0	0
1.70833	11.9508	14.4157	-0.811401	0.825131	0	-0.200934	0.0239734	0.0289182	-0.00162769	0	0	0	0	0	0	0	0	0
1.71667	0	0	0	0	0	0	0	0	0	0	0	0	0	0	0	0	0	0
1.725	0	0	0	0	0	0	0	0	0	0	0	0	0	0	0	0	0	0
1.73333	0	0	0	0	0	0	0	0	0	0	0	0	0	0	0	0	0	0
1.74167	0	0	0	0	0	0	0	0	0	0	0	0	0	0	0	0	0	0
1.75	0	0	0	0	0	0	0	0	0	0	0	0	0	0	0	0	0	0
1.75833	0	0	0	0	0	0	0	0	0	0	0	0	0	0	0	0	0	0
1.76667	0	0	0	0	0	0	0	0	0	0	0	0	0	0	0	0	0	0
1.775	0	0	0	0	0	0	0	0	0	0	0	0	0	0	0	0	0	0
1.78333	0	0	0	0	0	0	0	0	0	0	0	0	0	0	0	0	0	0
1.79167	0	0	0	0	0	0	0	0	0	0	0	0	0	0	0	0	0	0
1.8	0	0	0	0	0	0	0	0	0	0	0	0	0	0	0	0	0	0
1.80833	0	0	0	0	0	0	0	0	0	0	0	0	0	0	0	0	0	0
1.81667	0	0	0	0	0	0	0	0	0	-1.62001	11.299	-0.93058	1.46717	0	-0.309037	-0.387644	2.70368	-0.222673
1.825	0	0	0	0	0	0	0	0	0	-11.5586	38.0949	-0.678495	1.4469	0	-0.382996	-0.396269	1.30602	-0.0232611
1.83333	0	0	0	0	0	0	0	0	0	-43.8888	116.834	4.31499	1.42426	0	-0.386565	0.248683	-0.662005	-0.0244496
1.84167	0	0	0	0	0	0	0	0	0	-108.535	278.258	18.4289	1.41874	0	-0.381716	1.14166	-2.92695	-0.193851
1.85	0	0	0	0	0	0	0	0	0	-182.76	506.422	41.8119	1.41452	0	-0.37589	1.84384	-5.10924	-0.421835
1.85833	0	0	0	0	0	0	0	0	0	-215.77	749.267	64.9044	1.39533	0	-0.370617	1.92318	-6.67831	-0.578501
1.86667	0	0	0	0	0	0	0	0	0	-203.416	989.375	72.2074	1.35594	0	-0.366433	1.41903	-6.9019	-0.50372
1.875	0	0	0	0	0	0	0	0	0	-192.483	1223.73	56.7284	1.31326	0	-0.363341	0.843507	-5.3627	-0.248598
1.88333	0	0	0	0	0	0	0	0	0	-198.287	1433.81	27.6604	1.27934	0	-0.360081	0.334778	-2.42077	-0.0467005
1.89167	0	0	0	0	0	0	0	0	0	-198.401	1613.18	0.357048	1.24868	0	-0.356007	-0.143084	1.1634	0.000257496
1.9	0	0	0	0	0	0	0	0	0	-170.23	1762.11	-17.2518	1.21436	0	-0.351969	-0.447244	4.62959	-0.0453255
1.90833	0	0	0	0	0	0	0	0	0	-114.712	1867.34	-26.369	1.17807	0	-0.349101	-0.455006	7.40686	-0.104593
1.91667	0	0	0	0	0	0	0	0	0	-51.6612	1912.62	-30.5353	1.14463	0	-0.347822	-0.248583	9.20315	-0.14693
1.925	0	0	0	0	0	0	0	0	0	9.13482	1899.43	-31.5337	1.11402	0	-0.347026	0.0482655	10.036	-0.166614
1.93333	0	0	0	0	0	0	0	0	0	69.4283	1837.14	-30.7729	1.08361	0	-0.345517	0.382673	10.1259	-0.169613
1.94167	0	0	0	0	0	0	0	0	0	125.474	1726.96	-30.6081	1.05273	0	-0.343353	0.708195	9.74726	-0.172757
1.95	0	0	0	0	0	0	0	0	0	171.935	1565.15	-32.5273	1.02219	0	-0.34101	1.00072	9.10976	-0.189321
1.95833	0	0	0	0	0	0	0	0	0	206.11	1351.65	-35.3836	0.991644	0	-0.338582	1.2648	8.29442	-0.217132
1.96667	0	0	0	0	0	0	0	0	0	229.688	1095.82	-36.4528	0.958124	0	-0.336195	1.52184	7.26056	-0.241526
1.975	0	0	0	0	0	0	0	0	0	236.994	822.662	-33.8716	0.920667	0	-0.334015	1.713	5.94623	-0.244825
1.98333	0	0	0	0	0	0	0	0	0	215.027	567.644	-27.8239	0.885087	0	-0.331851	1.67461	4.42076	-0.21669
1.99167	0	0	0	0	0	0	0	0	0	164.772	356.555	-20.1064	0.85958	0	-0.32949	1.33362	2.88586	-0.162736
2	0	0	0	0	0	0	0	0	0	105.133	200.052	-13.0567	0.850011	0	-0.326575	0.798817	1.52003	-0.0992073
